<svg version="1.1" viewBox="0.0 0.0 600.0 371.0" fill="none" stroke="none" stroke-linecap="square" stroke-miterlimit="10" width="600" height="371" xmlns:xlink="http://www.w3.org/1999/xlink" xmlns="http://www.w3.org/2000/svg"><path fill="#ffffff" d="M0 0L600.0 0L600.0 371.0L0 371.0L0 0Z" fill-rule="nonzero"/><path stroke="#333333" stroke-width="1.0" stroke-linecap="butt" d="M91.5 300.5L581.5 300.5" fill-rule="nonzero"/><path stroke="#cccccc" stroke-width="1.0" stroke-linecap="butt" d="M91.5 220.5L581.5 220.5" fill-rule="nonzero"/><path stroke="#cccccc" stroke-width="1.0" stroke-linecap="butt" d="M91.5 141.5L581.5 141.5" fill-rule="nonzero"/><path stroke="#cccccc" stroke-width="1.0" stroke-linecap="butt" d="M91.5 61.5L581.5 61.5" fill-rule="nonzero"/><clipPath id="id_0"><path d="M91.55 61.916668L581.45 61.916668L581.45 300.45L91.55 300.45L91.55 61.916668Z" clip-rule="nonzero"/></clipPath><path stroke="#000000" stroke-width="2.0" stroke-linecap="butt" stroke-opacity="0.0" clip-path="url(#id_0)" d="M205.0 300.0L132.0 300.0L132.0 270.0C132.0 268.89542 132.89543 268.0 134.0 268.0L203.0 268.0C204.10457 268.0 205.0 268.89542 205.0 270.0Z" fill-rule="nonzero"/><path fill="#4285f4" clip-path="url(#id_0)" d="M205.0 300.0L132.0 300.0L132.0 270.0C132.0 268.89542 132.89543 268.0 134.0 268.0L203.0 268.0C204.10457 268.0 205.0 268.89542 205.0 270.0Z" fill-rule="nonzero"/><path stroke="#000000" stroke-width="2.0" stroke-linecap="butt" stroke-opacity="0.0" clip-path="url(#id_0)" d="M317.0 300.0L244.0 300.0L244.0 152.0C244.0 150.89543 244.89543 150.0 246.0 150.0L315.0 150.0C316.10458 150.0 317.0 150.89543 317.0 152.0Z" fill-rule="nonzero"/><path fill="#4285f4" clip-path="url(#id_0)" d="M317.0 300.0L244.0 300.0L244.0 152.0C244.0 150.89543 244.89543 150.0 246.0 150.0L315.0 150.0C316.10458 150.0 317.0 150.89543 317.0 152.0Z" fill-rule="nonzero"/><path stroke="#000000" stroke-width="2.0" stroke-linecap="butt" stroke-opacity="0.0" clip-path="url(#id_0)" d="M430.0 300.0L357.0 300.0L357.0 194.0C357.0 192.89543 357.89542 192.0 359.0 192.0L428.0 192.0C429.10458 192.0 430.0 192.89543 430.0 194.0Z" fill-rule="nonzero"/><path fill="#4285f4" clip-path="url(#id_0)" d="M430.0 300.0L357.0 300.0L357.0 194.0C357.0 192.89543 357.89542 192.0 359.0 192.0L428.0 192.0C429.10458 192.0 430.0 192.89543 430.0 194.0Z" fill-rule="nonzero"/><path stroke="#000000" stroke-width="2.0" stroke-linecap="butt" stroke-opacity="0.0" clip-path="url(#id_0)" d="M542.0 300.0L469.0 300.0L469.0 65.0C469.0 63.89543 469.89542 63.0 471.0 63.0L540.0 63.0C541.10455 63.0 542.0 63.89543 542.0 65.0Z" fill-rule="nonzero"/><path fill="#4285f4" clip-path="url(#id_0)" d="M542.0 300.0L469.0 300.0L469.0 65.0C469.0 63.89543 469.89542 63.0 471.0 63.0L540.0 63.0C541.10455 63.0 542.0 63.89543 542.0 65.0Z" fill-rule="nonzero"/><path fill="#000000" d="M325.875 349.45L322.54688 340.85626L323.78125 340.85626L326.01562 347.10626Q326.28125 347.85626 326.46875 348.5125Q326.67188 347.8094 326.9375 347.10626L329.25 340.85626L330.40625 340.85626L327.04688 349.45L325.875 349.45ZM330.29688 342.075L330.29688 340.85626L331.35938 340.85626L331.35938 342.075L330.29688 342.075ZM330.29688 349.45L330.29688 343.23126L331.35938 343.23126L331.35938 349.45L330.29688 349.45ZM333.28125 349.45L333.28125 343.23126L334.23438 343.23126L334.23438 344.16876Q334.59375 343.5125 334.89062 343.3094Q335.20312 343.09064 335.57812 343.09064Q336.10938 343.09064 336.65625 343.41876L336.29688 344.40314Q335.90625 344.16876 335.53125 344.16876Q335.17188 344.16876 334.89062 344.3875Q334.625 344.59064 334.51562 344.96564Q334.32812 345.52814 334.32812 346.1844L334.32812 349.45L333.28125 349.45ZM341.375 349.45L341.375 348.52814Q340.64062 349.59064 339.39062 349.59064Q338.84375 349.59064 338.35938 349.3875Q337.89062 349.16876 337.65625 348.85626Q337.42188 348.52814 337.32812 348.0594Q337.26562 347.7625 337.26562 347.075L337.26562 343.23126L338.32812 343.23126L338.32812 346.6844Q338.32812 347.4969 338.39062 347.79376Q338.48438 348.2 338.79688 348.45Q339.125 348.6844 339.60938 348.6844Q340.07812 348.6844 340.48438 348.45Q340.90625 348.2 341.07812 347.77814Q341.26562 347.35626 341.26562 346.5594L341.26562 343.23126L342.3125 343.23126L342.3125 349.45L341.375 349.45ZM343.875 347.59064L344.90625 347.4344Q345.0 348.0594 345.39062 348.3875Q345.79688 348.71564 346.53125 348.71564Q347.25 348.71564 347.59375 348.4344Q347.95312 348.1375 347.95312 347.73126Q347.95312 347.3719 347.64062 347.16876Q347.42188 347.02814 346.5625 346.8094Q345.40625 346.5125 344.95312 346.3094Q344.51562 346.09064 344.28125 345.71564Q344.04688 345.34064 344.04688 344.8719Q344.04688 344.46564 344.23438 344.10626Q344.42188 343.7469 344.75 343.5125Q345.0 343.34064 345.42188 343.21564Q345.84375 343.09064 346.34375 343.09064Q347.0625 343.09064 347.60938 343.3094Q348.17188 343.5125 348.4375 343.8719Q348.70312 344.23126 348.79688 344.825L347.76562 344.96564Q347.70312 344.4969 347.35938 344.23126Q347.03125 343.95 346.40625 343.95Q345.6875 343.95 345.375 344.2Q345.0625 344.4344 345.0625 344.7625Q345.0625 344.96564 345.1875 345.1219Q345.32812 345.29376 345.59375 345.40314Q345.75 345.46564 346.53125 345.66876Q347.65625 345.98126 348.09375 346.16876Q348.53125 346.35626 348.78125 346.71564Q349.03125 347.075 349.03125 347.6219Q349.03125 348.15314 348.71875 348.6219Q348.42188 349.075 347.84375 349.34064Q347.26562 349.59064 346.53125 349.59064Q345.3125 349.59064 344.67188 349.09064Q344.04688 348.575 343.875 347.59064Z" fill-rule="nonzero"/><path fill="#000000" d="M26.175013 232.23021L25.175013 232.23021L25.159388 228.60521L28.346888 228.60521Q29.018763 229.43333 29.362513 230.32396Q29.690638 231.21458 29.690638 232.15208Q29.690638 233.41771 29.159388 234.46458Q28.612513 235.49583 27.596888 236.02708Q26.565638 236.54271 25.300013 236.54271Q24.034388 236.54271 22.956263 236.02708Q21.862513 235.49583 21.346888 234.51146Q20.815638 233.52708 20.815638 232.24583Q20.815638 231.30833 21.112513 230.55833Q21.409388 229.80833 21.956263 229.38646Q22.487513 228.94896 23.362513 228.73021L23.643763 229.74583Q22.987513 229.94896 22.612513 230.24583Q22.237513 230.52708 22.018763 231.05833Q21.784388 231.58958 21.784388 232.23021Q21.784388 233.01146 22.018763 233.58958Q22.253138 234.15208 22.643763 234.51146Q23.034388 234.85521 23.503138 235.04271Q24.300013 235.37083 25.221888 235.37083Q26.378138 235.37083 27.159388 234.98021Q27.925013 234.57396 28.300013 233.82396Q28.675013 233.07396 28.675013 232.21458Q28.675013 231.48021 28.393763 230.77708Q28.096888 230.07396 27.784388 229.71458L26.175013 229.71458L26.175013 232.23021ZM27.550013 223.13646L27.675013 222.04271Q28.628138 222.29271 29.159388 222.99583Q29.690638 223.69896 29.690638 224.77708Q29.690638 226.13646 28.846888 226.94896Q28.003138 227.74583 26.487513 227.74583Q24.925013 227.74583 24.065638 226.93333Q23.190638 226.12083 23.190638 224.83958Q23.190638 223.58958 24.034388 222.80833Q24.878138 222.01146 26.425013 222.01146Q26.518763 222.01146 26.706263 222.01146L26.706263 226.65208Q27.737513 226.58958 28.284388 226.07396Q28.815638 225.55833 28.815638 224.77708Q28.815638 224.19896 28.518763 223.79271Q28.206263 223.37083 27.550013 223.13646ZM25.846888 226.58958L25.846888 223.12083Q25.050013 223.18333 24.659388 223.51146Q24.050013 224.02708 24.050013 224.82396Q24.050013 225.55833 24.534388 226.05833Q25.018763 226.54271 25.846888 226.58958ZM29.550013 220.38646L23.331263 220.38646L23.331263 219.44896L24.206263 219.44896Q23.190638 218.76146 23.190638 217.46458Q23.190638 216.90208 23.393763 216.43333Q23.596888 215.94896 23.925013 215.71458Q24.253138 215.48021 24.690638 215.38646Q24.987513 215.33958 25.721888 215.33958L29.550013 215.33958L29.550013 216.38646L25.768763 216.38646Q25.112513 216.38646 24.800013 216.51146Q24.487513 216.63646 24.300013 216.94896Q24.096888 217.26146 24.096888 217.68333Q24.096888 218.35521 24.534388 218.85521Q24.956263 219.33958 26.143763 219.33958L29.550013 219.33958L29.550013 220.38646ZM26.440638 213.77708Q24.706263 213.77708 23.878138 212.82396Q23.190638 212.02708 23.190638 210.87083Q23.190638 209.58958 24.034388 208.77708Q24.862513 207.94896 26.346888 207.94896Q27.550013 207.94896 28.237513 208.30833Q28.925013 208.66771 29.315638 209.37083Q29.690638 210.05833 29.690638 210.87083Q29.690638 212.16771 28.862513 212.98021Q28.018763 213.77708 26.440638 213.77708ZM26.440638 212.69896Q27.628138 212.69896 28.221888 212.18333Q28.815638 211.65208 28.815638 210.87083Q28.815638 210.07396 28.221888 209.55833Q27.628138 209.04271 26.409388 209.04271Q25.253138 209.04271 24.659388 209.57396Q24.065638 210.08958 24.065638 210.87083Q24.065638 211.65208 24.659388 212.18333Q25.237513 212.69896 26.440638 212.69896ZM29.550013 206.38646L23.331263 206.38646L23.331263 205.44896L24.206263 205.44896Q23.737513 205.15208 23.471888 204.66771Q23.190638 204.18333 23.190638 203.55833Q23.190638 202.87083 23.471888 202.43333Q23.753138 201.98021 24.268763 201.80833Q23.190638 201.05833 23.190638 199.88646Q23.190638 198.94896 23.706263 198.46458Q24.206263 197.96458 25.284388 197.96458L29.550013 197.96458L29.550013 199.01146L25.628138 199.01146Q25.003138 199.01146 24.721888 199.12083Q24.440638 199.21458 24.268763 199.48021Q24.096888 199.74583 24.096888 200.12083Q24.096888 200.77708 24.534388 201.21458Q24.971888 201.63646 25.940638 201.63646L29.550013 201.63646L29.550013 202.69896L25.503138 202.69896Q24.800013 202.69896 24.456263 202.96458Q24.096888 203.21458 24.096888 203.79271Q24.096888 204.24583 24.331263 204.62083Q24.565638 204.99583 25.018763 205.16771Q25.471888 205.33958 26.315638 205.33958L29.550013 205.33958L29.550013 206.38646ZM27.550013 191.13646L27.675013 190.04271Q28.628138 190.29271 29.159388 190.99583Q29.690638 191.69896 29.690638 192.77708Q29.690638 194.13646 28.846888 194.94896Q28.003138 195.74583 26.487513 195.74583Q24.925013 195.74583 24.065638 194.93333Q23.190638 194.12083 23.190638 192.83958Q23.190638 191.58958 24.034388 190.80833Q24.878138 190.01146 26.425013 190.01146Q26.518763 190.01146 26.706263 190.01146L26.706263 194.65208Q27.737513 194.58958 28.284388 194.07396Q28.815638 193.55833 28.815638 192.77708Q28.815638 192.19896 28.518763 191.79271Q28.206263 191.37083 27.550013 191.13646ZM25.846888 194.58958L25.846888 191.12083Q25.050013 191.18333 24.659388 191.51146Q24.050013 192.02708 24.050013 192.82396Q24.050013 193.55833 24.534388 194.05833Q25.018763 194.54271 25.846888 194.58958ZM26.784388 185.63646L26.690638 184.57396Q27.346888 184.49583 27.753138 184.21458Q28.159388 183.93333 28.425013 183.35521Q28.675013 182.76146 28.675013 182.02708Q28.675013 181.38646 28.487513 180.88646Q28.284388 180.38646 27.956263 180.15208Q27.612513 179.90208 27.221888 179.90208Q26.815638 179.90208 26.518763 180.13646Q26.206263 180.37083 26.003138 180.90208Q25.862513 181.26146 25.581263 182.44896Q25.300013 183.62083 25.050013 184.08958Q24.721888 184.71458 24.253138 185.01146Q23.768763 185.30833 23.175013 185.30833Q22.534388 185.30833 21.971888 184.94896Q21.393763 184.57396 21.112513 183.87083Q20.815638 183.15208 20.815638 182.29271Q20.815638 181.33958 21.128138 180.60521Q21.425013 179.87083 22.034388 179.48021Q22.628138 179.08958 23.378138 179.05833L23.456263 180.15208Q22.643763 180.24583 22.237513 180.76146Q21.815638 181.26146 21.815638 182.24583Q21.815638 183.27708 22.190638 183.74583Q22.565638 184.21458 23.096888 184.21458Q23.565638 184.21458 23.862513 183.88646Q24.159388 183.55833 24.471888 182.18333Q24.784388 180.79271 25.018763 180.27708Q25.378138 179.52708 25.909388 179.16771Q26.425013 178.80833 27.128138 178.80833Q27.815638 178.80833 28.425013 179.19896Q29.018763 179.58958 29.362513 180.32396Q29.690638 181.05833 29.690638 181.98021Q29.690638 183.15208 29.362513 183.94896Q29.018763 184.73021 28.331263 185.18333Q27.643763 185.62083 26.784388 185.63646ZM22.175013 177.38646L20.956263 177.38646L20.956263 176.32396L22.175013 176.32396L22.175013 177.38646ZM29.550013 177.38646L23.331263 177.38646L23.331263 176.32396L29.550013 176.32396L29.550013 177.38646ZM29.550013 174.94896L28.690638 174.94896L24.143763 170.98021Q24.175013 171.66771 24.175013 172.18333L24.175013 174.71458L23.331263 174.71458L23.331263 169.62083L24.018763 169.62083L27.971888 172.99583L28.690638 173.65208Q28.643763 172.93333 28.643763 172.32396L28.643763 169.43333L29.550013 169.43333L29.550013 174.94896ZM27.550013 165.13646L27.675013 164.04271Q28.628138 164.29271 29.159388 164.99583Q29.690638 165.69896 29.690638 166.77708Q29.690638 168.13646 28.846888 168.94896Q28.003138 169.74583 26.487513 169.74583Q24.925013 169.74583 24.065638 168.93333Q23.190638 168.12083 23.190638 166.83958Q23.190638 165.58958 24.034388 164.80833Q24.878138 164.01146 26.425013 164.01146Q26.518763 164.01146 26.706263 164.01146L26.706263 168.65208Q27.737513 168.58958 28.284388 168.07396Q28.815638 167.55833 28.815638 166.77708Q28.815638 166.19896 28.518763 165.79271Q28.206263 165.37083 27.550013 165.13646ZM25.846888 168.58958L25.846888 165.12083Q25.050013 165.18333 24.659388 165.51146Q24.050013 166.02708 24.050013 166.82396Q24.050013 167.55833 24.534388 168.05833Q25.018763 168.54271 25.846888 168.58958ZM32.08126 157.37083Q30.971888 158.24583 29.503138 158.85521Q28.018763 159.44896 26.440638 159.44896Q25.050013 159.44896 23.768763 159.01146Q22.284388 158.48021 20.815638 157.37083L20.815638 156.62083Q22.034388 157.32396 22.550013 157.55833Q23.362513 157.91771 24.237513 158.12083Q25.331263 158.37083 26.440638 158.37083Q29.268763 158.37083 32.08126 156.62083L32.08126 157.37083ZM29.550013 154.41771L29.550013 155.40208L20.956263 155.40208L20.956263 154.33958L24.018763 154.33958Q23.190638 153.66771 23.190638 152.63646Q23.190638 152.05833 23.425013 151.55833Q23.643763 151.04271 24.065638 150.71458Q24.487513 150.37083 25.081263 150.18333Q25.675013 149.99583 26.346888 149.99583Q27.940638 149.99583 28.815638 150.79271Q29.690638 151.58958 29.690638 152.68333Q29.690638 153.79271 28.768763 154.41771L29.550013 154.41771ZM26.393763 154.43333Q27.503138 154.43333 28.003138 154.12083Q28.815638 153.62083 28.815638 152.77708Q28.815638 152.08958 28.221888 151.58958Q27.628138 151.07396 26.425013 151.07396Q25.206263 151.07396 24.628138 151.55833Q24.050013 152.04271 24.050013 152.73021Q24.050013 153.41771 24.659388 153.93333Q25.253138 154.43333 26.393763 154.43333ZM31.940638 148.38646L23.331263 148.38646L23.331263 147.43333L24.128138 147.43333Q23.659388 147.08958 23.425013 146.66771Q23.190638 146.23021 23.190638 145.62083Q23.190638 144.82396 23.596888 144.21458Q24.003138 143.60521 24.753138 143.30833Q25.503138 142.99583 26.393763 142.99583Q27.346888 142.99583 28.112513 143.33958Q28.878138 143.66771 29.284388 144.32396Q29.690638 144.98021 29.690638 145.69896Q29.690638 146.23021 29.471888 146.65208Q29.237513 147.07396 28.909388 147.33958L31.940638 147.33958L31.940638 148.38646ZM26.471888 147.43333Q27.675013 147.43333 28.253138 146.94896Q28.815638 146.46458 28.815638 145.77708Q28.815638 145.07396 28.221888 144.57396Q27.628138 144.07396 26.378138 144.07396Q25.190638 144.07396 24.612513 144.55833Q24.018763 145.04271 24.018763 145.73021Q24.018763 146.40208 24.643763 146.91771Q25.268763 147.43333 26.471888 147.43333ZM32.08126 140.69896L32.08126 141.44896Q29.268763 139.69896 26.440638 139.69896Q25.346888 139.69896 24.253138 139.94896Q23.378138 140.15208 22.565638 140.51146Q22.050013 140.74583 20.815638 141.44896L20.815638 140.69896Q22.284388 139.60521 23.768763 139.07396Q25.050013 138.62083 26.440638 138.62083Q28.018763 138.62083 29.503138 139.23021Q30.971888 139.83958 32.08126 140.69896Z" fill-rule="nonzero"/><path fill="#000000" d="M79.05 300.21564Q79.05 298.6844 79.3625 297.7625Q79.675 296.825 80.28438 296.325Q80.90938 295.825 81.84688 295.825Q82.53438 295.825 83.05 296.10626Q83.58125 296.3875 83.925 296.91876Q84.26875 297.4344 84.45625 298.1844Q84.64375 298.9344 84.64375 300.21564Q84.64375 301.73126 84.33125 302.65314Q84.03438 303.575 83.40938 304.09064Q82.8 304.59064 81.84688 304.59064Q80.6125 304.59064 79.89375 303.7Q79.05 302.6375 79.05 300.21564ZM80.12813 300.21564Q80.12813 302.325 80.62813 303.02814Q81.12813 303.73126 81.84688 303.73126Q82.58125 303.73126 83.06563 303.02814Q83.56563 302.325 83.56563 300.21564Q83.56563 298.09064 83.06563 297.40314Q82.58125 296.7 81.83125 296.7Q81.1125 296.7 80.675 297.3094Q80.12813 298.09064 80.12813 300.21564Z" fill-rule="nonzero"/><path fill="#000000" d="M55.01875 224.93889L53.971874 224.93889L53.971874 218.22014Q53.58125 218.57951 52.95625 218.95451Q52.346874 219.31389 51.8625 219.48576L51.8625 218.47014Q52.7375 218.04826 53.39375 217.47014Q54.065624 216.87639 54.346874 216.31389L55.01875 216.31389L55.01875 224.93889ZM58.05 220.70451Q58.05 219.17326 58.3625 218.25139Q58.675 217.31389 59.284374 216.81389Q59.909374 216.31389 60.846874 216.31389Q61.534374 216.31389 62.05 216.59514Q62.58125 216.87639 62.925 217.40764Q63.26875 217.92326 63.45625 218.67326Q63.64375 219.42326 63.64375 220.70451Q63.64375 222.22014 63.33125 223.14201Q63.034374 224.06389 62.409374 224.57951Q61.8 225.07951 60.846874 225.07951Q59.6125 225.07951 58.89375 224.18889Q58.05 223.12639 58.05 220.70451ZM59.128124 220.70451Q59.128124 222.81389 59.628124 223.51701Q60.128124 224.22014 60.846874 224.22014Q61.58125 224.22014 62.065624 223.51701Q62.565624 222.81389 62.565624 220.70451Q62.565624 218.57951 62.065624 217.89201Q61.58125 217.18889 60.83125 217.18889Q60.1125 217.18889 59.675 217.79826Q59.128124 218.57951 59.128124 220.70451ZM65.05 220.70451Q65.05 219.17326 65.3625 218.25139Q65.675 217.31389 66.28438 216.81389Q66.90938 216.31389 67.84688 216.31389Q68.53438 216.31389 69.05 216.59514Q69.58125 216.87639 69.925 217.40764Q70.26875 217.92326 70.45625 218.67326Q70.64375 219.42326 70.64375 220.70451Q70.64375 222.22014 70.33125 223.14201Q70.03438 224.06389 69.40938 224.57951Q68.8 225.07951 67.84688 225.07951Q66.6125 225.07951 65.89375 224.18889Q65.05 223.12639 65.05 220.70451ZM66.12813 220.70451Q66.12813 222.81389 66.62813 223.51701Q67.12813 224.22014 67.84688 224.22014Q68.58125 224.22014 69.06563 223.51701Q69.56563 222.81389 69.56563 220.70451Q69.56563 218.57951 69.06563 217.89201Q68.58125 217.18889 67.83125 217.18889Q67.1125 217.18889 66.675 217.79826Q66.12813 218.57951 66.12813 220.70451ZM72.05 220.70451Q72.05 219.17326 72.3625 218.25139Q72.675 217.31389 73.28438 216.81389Q73.90938 216.31389 74.84688 216.31389Q75.53438 216.31389 76.05 216.59514Q76.58125 216.87639 76.925 217.40764Q77.26875 217.92326 77.45625 218.67326Q77.64375 219.42326 77.64375 220.70451Q77.64375 222.22014 77.33125 223.14201Q77.03438 224.06389 76.40938 224.57951Q75.8 225.07951 74.84688 225.07951Q73.6125 225.07951 72.89375 224.18889Q72.05 223.12639 72.05 220.70451ZM73.12813 220.70451Q73.12813 222.81389 73.62813 223.51701Q74.12813 224.22014 74.84688 224.22014Q75.58125 224.22014 76.06563 223.51701Q76.56563 222.81389 76.56563 220.70451Q76.56563 218.57951 76.06563 217.89201Q75.58125 217.18889 74.83125 217.18889Q74.1125 217.18889 73.675 217.79826Q73.12813 218.57951 73.12813 220.70451ZM79.05 220.70451Q79.05 219.17326 79.3625 218.25139Q79.675 217.31389 80.28438 216.81389Q80.90938 216.31389 81.84688 216.31389Q82.53438 216.31389 83.05 216.59514Q83.58125 216.87639 83.925 217.40764Q84.26875 217.92326 84.45625 218.67326Q84.64375 219.42326 84.64375 220.70451Q84.64375 222.22014 84.33125 223.14201Q84.03438 224.06389 83.40938 224.57951Q82.8 225.07951 81.84688 225.07951Q80.6125 225.07951 79.89375 224.18889Q79.05 223.12639 79.05 220.70451ZM80.12813 220.70451Q80.12813 222.81389 80.62813 223.51701Q81.12813 224.22014 81.84688 224.22014Q82.58125 224.22014 83.06563 223.51701Q83.56563 222.81389 83.56563 220.70451Q83.56563 218.57951 83.06563 217.89201Q82.58125 217.18889 81.83125 217.18889Q81.1125 217.18889 80.675 217.79826Q80.12813 218.57951 80.12813 220.70451Z" fill-rule="nonzero"/><path fill="#000000" d="M56.596874 144.41216L56.596874 145.42778L50.909374 145.42778Q50.909374 145.05278 51.034374 144.6934Q51.253124 144.11528 51.721874 143.55278Q52.20625 142.99028 53.1125 142.2559Q54.51875 141.09966 55.003124 140.42778Q55.503124 139.7559 55.503124 139.16216Q55.503124 138.53716 55.05 138.11528Q54.596874 137.67778 53.878124 137.67778Q53.1125 137.67778 52.659374 138.1309Q52.20625 138.58403 52.190624 139.39653L51.1125 139.28716Q51.221874 138.0684 51.940624 137.4434Q52.675 136.80278 53.909374 136.80278Q55.14375 136.80278 55.8625 137.49028Q56.58125 138.17778 56.58125 139.1934Q56.58125 139.70903 56.3625 140.20903Q56.159374 140.6934 55.659374 141.2559Q55.175 141.80278 54.05 142.7559Q53.096874 143.55278 52.815624 143.84966Q52.55 144.1309 52.378124 144.41216L56.596874 144.41216ZM58.05 141.1934Q58.05 139.66216 58.3625 138.74028Q58.675 137.80278 59.284374 137.30278Q59.909374 136.80278 60.846874 136.80278Q61.534374 136.80278 62.05 137.08403Q62.58125 137.36528 62.925 137.89653Q63.26875 138.41216 63.45625 139.16216Q63.64375 139.91216 63.64375 141.1934Q63.64375 142.70903 63.33125 143.6309Q63.034374 144.55278 62.409374 145.0684Q61.8 145.5684 60.846874 145.5684Q59.6125 145.5684 58.89375 144.67778Q58.05 143.61528 58.05 141.1934ZM59.128124 141.1934Q59.128124 143.30278 59.628124 144.0059Q60.128124 144.70903 60.846874 144.70903Q61.58125 144.70903 62.065624 144.0059Q62.565624 143.30278 62.565624 141.1934Q62.565624 139.0684 62.065624 138.3809Q61.58125 137.67778 60.83125 137.67778Q60.1125 137.67778 59.675 138.28716Q59.128124 139.0684 59.128124 141.1934ZM65.05 141.1934Q65.05 139.66216 65.3625 138.74028Q65.675 137.80278 66.28438 137.30278Q66.90938 136.80278 67.84688 136.80278Q68.53438 136.80278 69.05 137.08403Q69.58125 137.36528 69.925 137.89653Q70.26875 138.41216 70.45625 139.16216Q70.64375 139.91216 70.64375 141.1934Q70.64375 142.70903 70.33125 143.6309Q70.03438 144.55278 69.40938 145.0684Q68.8 145.5684 67.84688 145.5684Q66.6125 145.5684 65.89375 144.67778Q65.05 143.61528 65.05 141.1934ZM66.12813 141.1934Q66.12813 143.30278 66.62813 144.0059Q67.12813 144.70903 67.84688 144.70903Q68.58125 144.70903 69.06563 144.0059Q69.56563 143.30278 69.56563 141.1934Q69.56563 139.0684 69.06563 138.3809Q68.58125 137.67778 67.83125 137.67778Q67.1125 137.67778 66.675 138.28716Q66.12813 139.0684 66.12813 141.1934ZM72.05 141.1934Q72.05 139.66216 72.3625 138.74028Q72.675 137.80278 73.28438 137.30278Q73.90938 136.80278 74.84688 136.80278Q75.53438 136.80278 76.05 137.08403Q76.58125 137.36528 76.925 137.89653Q77.26875 138.41216 77.45625 139.16216Q77.64375 139.91216 77.64375 141.1934Q77.64375 142.70903 77.33125 143.6309Q77.03438 144.55278 76.40938 145.0684Q75.8 145.5684 74.84688 145.5684Q73.6125 145.5684 72.89375 144.67778Q72.05 143.61528 72.05 141.1934ZM73.12813 141.1934Q73.12813 143.30278 73.62813 144.0059Q74.12813 144.70903 74.84688 144.70903Q75.58125 144.70903 76.06563 144.0059Q76.56563 143.30278 76.56563 141.1934Q76.56563 139.0684 76.06563 138.3809Q75.58125 137.67778 74.83125 137.67778Q74.1125 137.67778 73.675 138.28716Q73.12813 139.0684 73.12813 141.1934ZM79.05 141.1934Q79.05 139.66216 79.3625 138.74028Q79.675 137.80278 80.28438 137.30278Q80.90938 136.80278 81.84688 136.80278Q82.53438 136.80278 83.05 137.08403Q83.58125 137.36528 83.925 137.89653Q84.26875 138.41216 84.45625 139.16216Q84.64375 139.91216 84.64375 141.1934Q84.64375 142.70903 84.33125 143.6309Q84.03438 144.55278 83.40938 145.0684Q82.8 145.5684 81.84688 145.5684Q80.6125 145.5684 79.89375 144.67778Q79.05 143.61528 79.05 141.1934ZM80.12813 141.1934Q80.12813 143.30278 80.62813 144.0059Q81.12813 144.70903 81.84688 144.70903Q82.58125 144.70903 83.06563 144.0059Q83.56563 143.30278 83.56563 141.1934Q83.56563 139.0684 83.06563 138.3809Q82.58125 137.67778 81.83125 137.67778Q81.1125 137.67778 80.675 138.28716Q80.12813 139.0684 80.12813 141.1934Z" fill-rule="nonzero"/><path fill="#000000" d="M51.05 63.65104L52.1125 63.510414Q52.284374 64.40104 52.721874 64.80729Q53.159374 65.197914 53.784374 65.197914Q54.534374 65.197914 55.05 64.68229Q55.565624 64.166664 55.565624 63.40104Q55.565624 62.68229 55.08125 62.21354Q54.6125 61.729164 53.878124 61.729164Q53.58125 61.729164 53.128124 61.854164L53.253124 60.916664Q53.3625 60.93229 53.425 60.93229Q54.096874 60.93229 54.628124 60.58854Q55.175 60.229164 55.175 59.49479Q55.175 58.916664 54.784374 58.541664Q54.39375 58.15104 53.76875 58.15104Q53.159374 58.15104 52.7375 58.541664Q52.33125 58.93229 52.221874 59.697914L51.159374 59.510414Q51.346874 58.46354 52.034374 57.885414Q52.721874 57.291664 53.7375 57.291664Q54.440624 57.291664 55.034374 57.604164Q55.628124 57.90104 55.940624 58.416664Q56.253124 58.93229 56.253124 59.52604Q56.253124 60.072914 55.95625 60.541664Q55.659374 60.99479 55.08125 61.260414Q55.83125 61.43229 56.253124 61.99479Q56.675 62.541664 56.675 63.385414Q56.675 64.510414 55.846874 65.291664Q55.034374 66.072914 53.784374 66.072914Q52.659374 66.072914 51.909374 65.40104Q51.159374 64.71354 51.05 63.65104ZM58.05 61.68229Q58.05 60.15104 58.3625 59.229164Q58.675 58.291664 59.284374 57.791664Q59.909374 57.291664 60.846874 57.291664Q61.534374 57.291664 62.05 57.572914Q62.58125 57.854164 62.925 58.385414Q63.26875 58.90104 63.45625 59.65104Q63.64375 60.40104 63.64375 61.68229Q63.64375 63.197914 63.33125 64.11979Q63.034374 65.041664 62.409374 65.55729Q61.8 66.05729 60.846874 66.05729Q59.6125 66.05729 58.89375 65.166664Q58.05 64.104164 58.05 61.68229ZM59.128124 61.68229Q59.128124 63.791664 59.628124 64.49479Q60.128124 65.197914 60.846874 65.197914Q61.58125 65.197914 62.065624 64.49479Q62.565624 63.791664 62.565624 61.68229Q62.565624 59.55729 62.065624 58.86979Q61.58125 58.166664 60.83125 58.166664Q60.1125 58.166664 59.675 58.77604Q59.128124 59.55729 59.128124 61.68229ZM65.05 61.68229Q65.05 60.15104 65.3625 59.229164Q65.675 58.291664 66.28438 57.791664Q66.90938 57.291664 67.84688 57.291664Q68.53438 57.291664 69.05 57.572914Q69.58125 57.854164 69.925 58.385414Q70.26875 58.90104 70.45625 59.65104Q70.64375 60.40104 70.64375 61.68229Q70.64375 63.197914 70.33125 64.11979Q70.03438 65.041664 69.40938 65.55729Q68.8 66.05729 67.84688 66.05729Q66.6125 66.05729 65.89375 65.166664Q65.05 64.104164 65.05 61.68229ZM66.12813 61.68229Q66.12813 63.791664 66.62813 64.49479Q67.12813 65.197914 67.84688 65.197914Q68.58125 65.197914 69.06563 64.49479Q69.56563 63.791664 69.56563 61.68229Q69.56563 59.55729 69.06563 58.86979Q68.58125 58.166664 67.83125 58.166664Q67.1125 58.166664 66.675 58.77604Q66.12813 59.55729 66.12813 61.68229ZM72.05 61.68229Q72.05 60.15104 72.3625 59.229164Q72.675 58.291664 73.28438 57.791664Q73.90938 57.291664 74.84688 57.291664Q75.53438 57.291664 76.05 57.572914Q76.58125 57.854164 76.925 58.385414Q77.26875 58.90104 77.45625 59.65104Q77.64375 60.40104 77.64375 61.68229Q77.64375 63.197914 77.33125 64.11979Q77.03438 65.041664 76.40938 65.55729Q75.8 66.05729 74.84688 66.05729Q73.6125 66.05729 72.89375 65.166664Q72.05 64.104164 72.05 61.68229ZM73.12813 61.68229Q73.12813 63.791664 73.62813 64.49479Q74.12813 65.197914 74.84688 65.197914Q75.58125 65.197914 76.06563 64.49479Q76.56563 63.791664 76.56563 61.68229Q76.56563 59.55729 76.06563 58.86979Q75.58125 58.166664 74.83125 58.166664Q74.1125 58.166664 73.675 58.77604Q73.12813 59.55729 73.12813 61.68229ZM79.05 61.68229Q79.05 60.15104 79.3625 59.229164Q79.675 58.291664 80.28438 57.791664Q80.90938 57.291664 81.84688 57.291664Q82.53438 57.291664 83.05 57.572914Q83.58125 57.854164 83.925 58.385414Q84.26875 58.90104 84.45625 59.65104Q84.64375 60.40104 84.64375 61.68229Q84.64375 63.197914 84.33125 64.11979Q84.03438 65.041664 83.40938 65.55729Q82.8 66.05729 81.84688 66.05729Q80.6125 66.05729 79.89375 65.166664Q79.05 64.104164 79.05 61.68229ZM80.12813 61.68229Q80.12813 63.791664 80.62813 64.49479Q81.12813 65.197914 81.84688 65.197914Q82.58125 65.197914 83.06563 64.49479Q83.56563 63.791664 83.56563 61.68229Q83.56563 59.55729 83.06563 58.86979Q82.58125 58.166664 81.83125 58.166664Q81.1125 58.166664 80.675 58.77604Q80.12813 59.55729 80.12813 61.68229Z" fill-rule="nonzero"/><path fill="#000000" d="M95.55334 317.45L98.85021 308.85626L100.06896 308.85626L103.58459 317.45L102.30334 317.45L101.28771 314.84064L97.70959 314.84064L96.75646 317.45L95.55334 317.45ZM98.03771 313.91876L100.94396 313.91876L100.05334 311.54376Q99.63146 310.46564 99.44396 309.7625Q99.27209 310.59064 98.97521 311.40314L98.03771 313.91876ZM103.16271 317.96564L104.19396 318.1219Q104.25646 318.59064 104.55334 318.8094Q104.94396 319.10626 105.61584 319.10626Q106.35021 319.10626 106.74084 318.8094Q107.14709 318.5125 107.28771 317.9969Q107.38146 317.66876 107.36584 316.6375Q106.67834 317.45 105.64709 317.45Q104.36584 317.45 103.66271 316.52814Q102.95959 315.59064 102.95959 314.3094Q102.95959 313.41876 103.27209 312.66876Q103.60021 311.90314 104.20959 311.4969Q104.81896 311.09064 105.64709 311.09064Q106.75646 311.09064 107.47521 311.98126L107.47521 311.23126L108.44396 311.23126L108.44396 316.60626Q108.44396 318.0594 108.14709 318.66876Q107.85021 319.27814 107.20959 319.6219Q106.56896 319.98126 105.63146 319.98126Q104.52209 319.98126 103.83459 319.48126Q103.14709 318.98126 103.16271 317.96564ZM104.03771 314.23126Q104.03771 315.45 104.52209 316.0125Q105.00646 316.575 105.74084 316.575Q106.47521 316.575 106.95959 316.0125Q107.45959 315.45 107.45959 314.2625Q107.45959 313.1219 106.94396 312.54376Q106.44396 311.96564 105.72521 311.96564Q105.02209 311.96564 104.52209 312.54376Q104.03771 313.10626 104.03771 314.23126ZM114.61584 315.45L115.70959 315.575Q115.45959 316.52814 114.75646 317.0594Q114.05334 317.59064 112.97521 317.59064Q111.61584 317.59064 110.80334 316.7469Q110.00646 315.90314 110.00646 314.3875Q110.00646 312.825 110.81896 311.96564Q111.63146 311.09064 112.91271 311.09064Q114.16271 311.09064 114.94396 311.9344Q115.74084 312.77814 115.74084 314.325Q115.74084 314.41876 115.74084 314.60626L111.10021 314.60626Q111.16271 315.6375 111.67834 316.1844Q112.19396 316.71564 112.97521 316.71564Q113.55334 316.71564 113.95959 316.41876Q114.38146 316.10626 114.61584 315.45ZM111.16271 313.7469L114.63146 313.7469Q114.56896 312.95 114.24084 312.5594Q113.72521 311.95 112.92834 311.95Q112.19396 311.95 111.69396 312.4344Q111.20959 312.91876 111.16271 313.7469ZM117.35021 317.45L117.35021 311.23126L118.30334 311.23126L118.30334 312.16876Q118.66271 311.5125 118.95959 311.3094Q119.27209 311.09064 119.64709 311.09064Q120.17834 311.09064 120.72521 311.41876L120.36584 312.40314Q119.97521 312.16876 119.60021 312.16876Q119.24084 312.16876 118.95959 312.3875Q118.69396 312.59064 118.58459 312.96564Q118.39709 313.52814 118.39709 314.1844L118.39709 317.45L117.35021 317.45ZM125.42834 316.6844Q124.83459 317.1844 124.28771 317.3875Q123.75646 317.59064 123.13146 317.59064Q122.10021 317.59064 121.55334 317.09064Q121.00646 316.59064 121.00646 315.8094Q121.00646 315.35626 121.20959 314.98126Q121.41271 314.59064 121.75646 314.3719Q122.10021 314.1375 122.52209 314.02814Q122.81896 313.9344 123.45959 313.85626Q124.72521 313.71564 125.33459 313.4969Q125.33459 313.27814 125.33459 313.23126Q125.33459 312.575 125.03771 312.3094Q124.63146 311.96564 123.83459 311.96564Q123.10021 311.96564 122.74084 312.23126Q122.38146 312.48126 122.20959 313.1375L121.17834 312.9969Q121.31896 312.34064 121.64709 311.9344Q121.97521 311.52814 122.58459 311.3094Q123.19396 311.09064 123.99084 311.09064Q124.78771 311.09064 125.28771 311.27814Q125.78771 311.46564 126.02209 311.7469Q126.25646 312.02814 126.35021 312.46564Q126.39709 312.73126 126.39709 313.4344L126.39709 314.84064Q126.39709 316.3094 126.45959 316.7Q126.53771 317.09064 126.74084 317.45L125.63146 317.45Q125.47521 317.1219 125.42834 316.6844ZM125.33459 314.325Q124.75646 314.5594 123.61584 314.73126Q122.95959 314.825 122.69396 314.95Q122.42834 315.0594 122.27209 315.27814Q122.13146 315.4969 122.13146 315.77814Q122.13146 316.2 122.44396 316.48126Q122.77209 316.7625 123.38146 316.7625Q123.99084 316.7625 124.45959 316.4969Q124.94396 316.23126 125.16271 315.7625Q125.33459 315.40314 125.33459 314.71564L125.33459 314.325ZM130.66272 316.5125L130.81897 317.4344Q130.36584 317.52814 130.0221 317.52814Q129.44397 317.52814 129.13147 317.35626Q128.81897 317.16876 128.67834 316.8719Q128.55334 316.575 128.55334 315.6219L128.55334 312.04376L127.78771 312.04376L127.78771 311.23126L128.55334 311.23126L128.55334 309.6844L129.60022 309.0594L129.60022 311.23126L130.66272 311.23126L130.66272 312.04376L129.60022 312.04376L129.60022 315.6844Q129.60022 316.1375 129.6471 316.2625Q129.7096 316.3875 129.8346 316.46564Q129.9596 316.54376 130.19397 316.54376Q130.38147 316.54376 130.66272 316.5125ZM135.44397 317.45L135.44397 316.52814Q134.7096 317.59064 133.4596 317.59064Q132.91272 317.59064 132.42834 317.3875Q131.9596 317.16876 131.72522 316.85626Q131.49084 316.52814 131.3971 316.0594Q131.3346 315.7625 131.3346 315.075L131.3346 311.23126L132.3971 311.23126L132.3971 314.6844Q132.3971 315.4969 132.4596 315.79376Q132.55334 316.2 132.86584 316.45Q133.19397 316.6844 133.67834 316.6844Q134.1471 316.6844 134.55334 316.45Q134.97522 316.2 135.1471 315.77814Q135.3346 315.35626 135.3346 314.5594L135.3346 311.23126L136.38147 311.23126L136.38147 317.45L135.44397 317.45ZM138.36584 317.45L138.36584 311.23126L139.30334 311.23126L139.30334 312.10626Q139.60022 311.6375 140.0846 311.3719Q140.56897 311.09064 141.19397 311.09064Q141.88147 311.09064 142.31897 311.3719Q142.7721 311.65314 142.94397 312.16876Q143.69397 311.09064 144.86584 311.09064Q145.80334 311.09064 146.28772 311.60626Q146.78772 312.10626 146.78772 313.1844L146.78772 317.45L145.74084 317.45L145.74084 313.52814Q145.74084 312.90314 145.63147 312.6219Q145.53772 312.34064 145.2721 312.16876Q145.00647 311.9969 144.63147 311.9969Q143.97522 311.9969 143.53772 312.4344Q143.11584 312.8719 143.11584 313.84064L143.11584 317.45L142.05334 317.45L142.05334 313.40314Q142.05334 312.7 141.78772 312.35626Q141.53772 311.9969 140.9596 311.9969Q140.50647 311.9969 140.13147 312.23126Q139.75647 312.46564 139.5846 312.91876Q139.41272 313.3719 139.41272 314.21564L139.41272 317.45L138.36584 317.45ZM152.31897 319.84064L152.19397 318.85626Q152.53772 318.95 152.80334 318.95Q153.1471 318.95 153.35022 318.825Q153.56897 318.71564 153.7096 318.5125Q153.80334 318.34064 154.03772 317.71564Q154.05334 317.6375 154.13147 317.46564L151.75647 311.23126L152.8971 311.23126L154.19397 314.825Q154.44397 315.5125 154.6471 316.27814Q154.8346 315.54376 155.0846 314.85626L156.41272 311.23126L157.4596 311.23126L155.10022 317.5594Q154.7096 318.575 154.50647 318.96564Q154.22522 319.4969 153.85022 319.73126Q153.49084 319.98126 152.99084 319.98126Q152.69397 319.98126 152.31897 319.84064ZM161.61584 315.45L162.7096 315.575Q162.4596 316.52814 161.75647 317.0594Q161.05334 317.59064 159.97522 317.59064Q158.61584 317.59064 157.80334 316.7469Q157.00647 315.90314 157.00647 314.3875Q157.00647 312.825 157.81897 311.96564Q158.63147 311.09064 159.91272 311.09064Q161.16272 311.09064 161.94397 311.9344Q162.74084 312.77814 162.74084 314.325Q162.74084 314.41876 162.74084 314.60626L158.10022 314.60626Q158.16272 315.6375 158.67834 316.1844Q159.19397 316.71564 159.97522 316.71564Q160.55334 316.71564 160.9596 316.41876Q161.38147 316.10626 161.61584 315.45ZM158.16272 313.7469L161.63147 313.7469Q161.56897 312.95 161.24084 312.5594Q160.72522 311.95 159.92834 311.95Q159.19397 311.95 158.69397 312.4344Q158.2096 312.91876 158.16272 313.7469ZM164.3346 317.45L164.3346 308.85626L165.3971 308.85626L165.3971 317.45L164.3346 317.45ZM167.3346 317.45L167.3346 308.85626L168.3971 308.85626L168.3971 317.45L167.3346 317.45ZM169.97522 314.34064Q169.97522 312.60626 170.92834 311.77814Q171.72522 311.09064 172.88147 311.09064Q174.16272 311.09064 174.97522 311.9344Q175.80334 312.7625 175.80334 314.2469Q175.80334 315.45 175.44397 316.1375Q175.0846 316.825 174.38147 317.21564Q173.69397 317.59064 172.88147 317.59064Q171.5846 317.59064 170.7721 316.7625Q169.97522 315.91876 169.97522 314.34064ZM171.05334 314.34064Q171.05334 315.52814 171.56897 316.1219Q172.10022 316.71564 172.88147 316.71564Q173.67834 316.71564 174.19397 316.1219Q174.7096 315.52814 174.7096 314.3094Q174.7096 313.15314 174.17834 312.5594Q173.66272 311.96564 172.88147 311.96564Q172.10022 311.96564 171.56897 312.5594Q171.05334 313.1375 171.05334 314.34064ZM178.50647 317.45L176.60022 311.23126L177.69397 311.23126L178.67834 314.825L179.05334 316.15314Q179.0846 316.0594 179.38147 314.8719L180.36584 311.23126L181.44397 311.23126L182.38147 314.84064L182.69397 316.02814L183.05334 314.825L184.11584 311.23126L185.1471 311.23126L183.19397 317.45L182.10022 317.45L181.11584 313.71564L180.86584 312.66876L179.61584 317.45L178.50647 317.45ZM191.0846 317.45L188.72522 311.23126L189.8346 311.23126L191.17834 314.95Q191.38147 315.5594 191.56897 316.2Q191.7096 315.71564 191.9596 315.02814L193.35022 311.23126L194.42834 311.23126L192.06897 317.45L191.0846 317.45ZM198.61584 315.45L199.7096 315.575Q199.4596 316.52814 198.75647 317.0594Q198.05334 317.59064 196.97522 317.59064Q195.61584 317.59064 194.80334 316.7469Q194.00647 315.90314 194.00647 314.3875Q194.00647 312.825 194.81897 311.96564Q195.63147 311.09064 196.91272 311.09064Q198.16272 311.09064 198.94397 311.9344Q199.74084 312.77814 199.74084 314.325Q199.74084 314.41876 199.74084 314.60626L195.10022 314.60626Q195.16272 315.6375 195.67834 316.1844Q196.19397 316.71564 196.97522 316.71564Q197.55334 316.71564 197.9596 316.41876Q198.38147 316.10626 198.61584 315.45ZM195.16272 313.7469L198.63147 313.7469Q198.56897 312.95 198.24084 312.5594Q197.72522 311.95 196.92834 311.95Q196.19397 311.95 195.69397 312.4344Q195.2096 312.91876 195.16272 313.7469ZM201.36584 310.075L201.36584 308.85626L202.42834 308.85626L202.42834 310.075L201.36584 310.075ZM201.36584 317.45L201.36584 311.23126L202.42834 311.23126L202.42834 317.45L201.36584 317.45ZM204.36584 317.45L204.36584 311.23126L205.30334 311.23126L205.30334 312.10626Q205.99084 311.09064 207.28772 311.09064Q207.85022 311.09064 208.31897 311.29376Q208.80334 311.4969 209.03772 311.825Q209.2721 312.15314 209.36584 312.59064Q209.41272 312.8875 209.41272 313.6219L209.41272 317.45L208.36584 317.45L208.36584 313.66876Q208.36584 313.0125 208.24084 312.7Q208.11584 312.3875 207.80334 312.2Q207.49084 311.9969 207.06897 311.9969Q206.3971 311.9969 205.8971 312.4344Q205.41272 312.85626 205.41272 314.04376L205.41272 317.45L204.36584 317.45ZM216.0846 317.45L213.72522 311.23126L214.8346 311.23126L216.17834 314.95Q216.38147 315.5594 216.56897 316.2Q216.7096 315.71564 216.9596 315.02814L218.35022 311.23126L219.42834 311.23126L217.06897 317.45L216.0846 317.45ZM219.36584 310.075L219.36584 308.85626L220.42834 308.85626L220.42834 310.075L219.36584 310.075ZM219.36584 317.45L219.36584 311.23126L220.42834 311.23126L220.42834 317.45L219.36584 317.45ZM222.35022 317.45L222.35022 311.23126L223.30334 311.23126L223.30334 312.16876Q223.66272 311.5125 223.9596 311.3094Q224.2721 311.09064 224.6471 311.09064Q225.17834 311.09064 225.72522 311.41876L225.36584 312.40314Q224.97522 312.16876 224.60022 312.16876Q224.24084 312.16876 223.9596 312.3875Q223.69397 312.59064 223.5846 312.96564Q223.3971 313.52814 223.3971 314.1844L223.3971 317.45L222.35022 317.45ZM230.44397 317.45L230.44397 316.52814Q229.7096 317.59064 228.4596 317.59064Q227.91272 317.59064 227.42834 317.3875Q226.9596 317.16876 226.72522 316.85626Q226.49084 316.52814 226.3971 316.0594Q226.3346 315.7625 226.3346 315.075L226.3346 311.23126L227.3971 311.23126L227.3971 314.6844Q227.3971 315.4969 227.4596 315.79376Q227.55334 316.2 227.86584 316.45Q228.19397 316.6844 228.67834 316.6844Q229.1471 316.6844 229.55334 316.45Q229.97522 316.2 230.1471 315.77814Q230.3346 315.35626 230.3346 314.5594L230.3346 311.23126L231.38147 311.23126L231.38147 317.45L230.44397 317.45ZM232.94397 315.59064L233.97522 315.4344Q234.06897 316.0594 234.4596 316.3875Q234.86584 316.71564 235.60022 316.71564Q236.31897 316.71564 236.66272 316.4344Q237.0221 316.1375 237.0221 315.73126Q237.0221 315.3719 236.7096 315.16876Q236.49084 315.02814 235.63147 314.8094Q234.47522 314.5125 234.0221 314.3094Q233.5846 314.09064 233.35022 313.71564Q233.11584 313.34064 233.11584 312.8719Q233.11584 312.46564 233.30334 312.10626Q233.49084 311.7469 233.81897 311.5125Q234.06897 311.34064 234.49084 311.21564Q234.91272 311.09064 235.41272 311.09064Q236.13147 311.09064 236.67834 311.3094Q237.24084 311.5125 237.50647 311.8719Q237.7721 312.23126 237.86584 312.825L236.8346 312.96564Q236.7721 312.4969 236.42834 312.23126Q236.10022 311.95 235.47522 311.95Q234.75647 311.95 234.44397 312.2Q234.13147 312.4344 234.13147 312.7625Q234.13147 312.96564 234.25647 313.1219Q234.3971 313.29376 234.66272 313.40314Q234.81897 313.46564 235.60022 313.66876Q236.72522 313.98126 237.16272 314.16876Q237.60022 314.35626 237.85022 314.71564Q238.10022 315.075 238.10022 315.6219Q238.10022 316.15314 237.78772 316.6219Q237.49084 317.075 236.91272 317.34064Q236.3346 317.59064 235.60022 317.59064Q234.38147 317.59064 233.74084 317.09064Q233.11584 316.575 232.94397 315.59064Z" fill-rule="nonzero"/><path fill="#000000" d="M249.64278 317.45L249.64278 308.85626L255.8459 308.85626L255.8459 309.8719L250.7834 309.8719L250.7834 312.4969L255.5334 312.4969L255.5334 313.5125L250.7834 313.5125L250.7834 316.4344L256.049 316.4344L256.049 317.45L249.64278 317.45ZM258.45526 317.45L257.4709 317.45L257.4709 308.85626L258.5334 308.85626L258.5334 311.91876Q259.20526 311.09064 260.2365 311.09064Q260.81464 311.09064 261.31464 311.325Q261.83026 311.54376 262.1584 311.96564Q262.50214 312.3875 262.68964 312.98126Q262.87714 313.575 262.87714 314.2469Q262.87714 315.84064 262.08026 316.71564Q261.2834 317.59064 260.18964 317.59064Q259.08026 317.59064 258.45526 316.66876L258.45526 317.45ZM258.43964 314.29376Q258.43964 315.40314 258.75214 315.90314Q259.25214 316.71564 260.0959 316.71564Q260.7834 316.71564 261.2834 316.1219Q261.799 315.52814 261.799 314.325Q261.799 313.10626 261.31464 312.52814Q260.83026 311.95 260.14276 311.95Q259.45526 311.95 258.93964 312.5594Q258.43964 313.15314 258.43964 314.29376ZM264.0959 314.34064Q264.0959 312.60626 265.049 311.77814Q265.8459 311.09064 267.00214 311.09064Q268.2834 311.09064 269.0959 311.9344Q269.924 312.7625 269.924 314.2469Q269.924 315.45 269.56464 316.1375Q269.20526 316.825 268.50214 317.21564Q267.81464 317.59064 267.00214 317.59064Q265.70526 317.59064 264.89276 316.7625Q264.0959 315.91876 264.0959 314.34064ZM265.174 314.34064Q265.174 315.52814 265.68964 316.1219Q266.2209 316.71564 267.00214 316.71564Q267.799 316.71564 268.31464 316.1219Q268.83026 315.52814 268.83026 314.3094Q268.83026 313.15314 268.299 312.5594Q267.7834 311.96564 267.00214 311.96564Q266.2209 311.96564 265.68964 312.5594Q265.174 313.1375 265.174 314.34064ZM271.45526 317.45L271.45526 308.85626L272.51776 308.85626L272.51776 317.45L271.45526 317.45ZM278.549 316.6844Q277.95526 317.1844 277.4084 317.3875Q276.87714 317.59064 276.25214 317.59064Q275.2209 317.59064 274.674 317.09064Q274.12714 316.59064 274.12714 315.8094Q274.12714 315.35626 274.33026 314.98126Q274.5334 314.59064 274.87714 314.3719Q275.2209 314.1375 275.64276 314.02814Q275.93964 313.9344 276.58026 313.85626Q277.8459 313.71564 278.45526 313.4969Q278.45526 313.27814 278.45526 313.23126Q278.45526 312.575 278.1584 312.3094Q277.75214 311.96564 276.95526 311.96564Q276.2209 311.96564 275.8615 312.23126Q275.50214 312.48126 275.33026 313.1375L274.299 312.9969Q274.43964 312.34064 274.76776 311.9344Q275.0959 311.52814 275.70526 311.3094Q276.31464 311.09064 277.1115 311.09064Q277.9084 311.09064 278.4084 311.27814Q278.9084 311.46564 279.14276 311.7469Q279.37714 312.02814 279.4709 312.46564Q279.51776 312.73126 279.51776 313.4344L279.51776 314.84064Q279.51776 316.3094 279.58026 316.7Q279.6584 317.09064 279.8615 317.45L278.75214 317.45Q278.5959 317.1219 278.549 316.6844ZM278.45526 314.325Q277.87714 314.5594 276.7365 314.73126Q276.08026 314.825 275.81464 314.95Q275.549 315.0594 275.39276 315.27814Q275.25214 315.4969 275.25214 315.77814Q275.25214 316.2 275.56464 316.48126Q275.89276 316.7625 276.50214 316.7625Q277.1115 316.7625 277.58026 316.4969Q278.06464 316.23126 278.2834 315.7625Q278.45526 315.40314 278.45526 314.71564L278.45526 314.325ZM287.06464 317.45L283.7365 308.85626L284.9709 308.85626L287.20526 315.10626Q287.4709 315.85626 287.6584 316.5125Q287.8615 315.8094 288.12714 315.10626L290.43964 308.85626L291.5959 308.85626L288.2365 317.45L287.06464 317.45ZM291.4865 310.075L291.4865 308.85626L292.549 308.85626L292.549 310.075L291.4865 310.075ZM291.4865 317.45L291.4865 311.23126L292.549 311.23126L292.549 317.45L291.4865 317.45ZM294.4709 317.45L294.4709 311.23126L295.424 311.23126L295.424 312.16876Q295.7834 311.5125 296.08026 311.3094Q296.39276 311.09064 296.76776 311.09064Q297.299 311.09064 297.8459 311.41876L297.4865 312.40314Q297.0959 312.16876 296.7209 312.16876Q296.3615 312.16876 296.08026 312.3875Q295.81464 312.59064 295.70526 312.96564Q295.51776 313.52814 295.51776 314.1844L295.51776 317.45L294.4709 317.45ZM302.56464 317.45L302.56464 316.52814Q301.83026 317.59064 300.58026 317.59064Q300.0334 317.59064 299.549 317.3875Q299.08026 317.16876 298.8459 316.85626Q298.6115 316.52814 298.51776 316.0594Q298.45526 315.7625 298.45526 315.075L298.45526 311.23126L299.51776 311.23126L299.51776 314.6844Q299.51776 315.4969 299.58026 315.79376Q299.674 316.2 299.9865 316.45Q300.31464 316.6844 300.799 316.6844Q301.26776 316.6844 301.674 316.45Q302.0959 316.2 302.26776 315.77814Q302.45526 315.35626 302.45526 314.5594L302.45526 311.23126L303.50214 311.23126L303.50214 317.45L302.56464 317.45ZM305.06464 315.59064L306.0959 315.4344Q306.18964 316.0594 306.58026 316.3875Q306.9865 316.71564 307.7209 316.71564Q308.43964 316.71564 308.7834 316.4344Q309.14276 316.1375 309.14276 315.73126Q309.14276 315.3719 308.83026 315.16876Q308.6115 315.02814 307.75214 314.8094Q306.5959 314.5125 306.14276 314.3094Q305.70526 314.09064 305.4709 313.71564Q305.2365 313.34064 305.2365 312.8719Q305.2365 312.46564 305.424 312.10626Q305.6115 311.7469 305.93964 311.5125Q306.18964 311.34064 306.6115 311.21564Q307.0334 311.09064 307.5334 311.09064Q308.25214 311.09064 308.799 311.3094Q309.3615 311.5125 309.62714 311.8719Q309.89276 312.23126 309.9865 312.825L308.95526 312.96564Q308.89276 312.4969 308.549 312.23126Q308.2209 311.95 307.5959 311.95Q306.87714 311.95 306.56464 312.2Q306.25214 312.4344 306.25214 312.7625Q306.25214 312.96564 306.37714 313.1219Q306.51776 313.29376 306.7834 313.40314Q306.93964 313.46564 307.7209 313.66876Q308.8459 313.98126 309.2834 314.16876Q309.7209 314.35626 309.9709 314.71564Q310.2209 315.075 310.2209 315.6219Q310.2209 316.15314 309.9084 316.6219Q309.6115 317.075 309.0334 317.34064Q308.45526 317.59064 307.7209 317.59064Q306.50214 317.59064 305.8615 317.09064Q305.2365 316.575 305.06464 315.59064Z" fill-rule="nonzero"/><path fill="#000000" d="M349.93533 317.45L349.93533 308.85626L351.06033 308.85626L351.06033 317.45L349.93533 317.45ZM352.6072 317.45L352.6072 311.23126L353.5447 311.23126L353.5447 312.10626Q354.2322 311.09064 355.52908 311.09064Q356.09158 311.09064 356.56033 311.29376Q357.0447 311.4969 357.27908 311.825Q357.51346 312.15314 357.6072 312.59064Q357.65408 312.8875 357.65408 313.6219L357.65408 317.45L356.6072 317.45L356.6072 313.66876Q356.6072 313.0125 356.4822 312.7Q356.3572 312.3875 356.0447 312.2Q355.7322 311.9969 355.31033 311.9969Q354.63846 311.9969 354.13846 312.4344Q353.65408 312.85626 353.65408 314.04376L353.65408 317.45L352.6072 317.45ZM359.8572 317.45L359.8572 312.04376L358.9197 312.04376L358.9197 311.23126L359.8572 311.23126L359.8572 310.5594Q359.8572 309.9344 359.96658 309.6375Q360.12283 309.21564 360.49783 308.96564Q360.88846 308.71564 361.57596 308.71564Q362.02908 308.71564 362.56033 308.825L362.40408 309.73126Q362.07596 309.6844 361.77908 309.6844Q361.2947 309.6844 361.09158 309.8875Q360.90408 310.09064 360.90408 310.65314L360.90408 311.23126L362.12283 311.23126L362.12283 312.04376L360.90408 312.04376L360.90408 317.45L359.8572 317.45ZM362.57596 317.45L362.57596 308.85626L363.63846 308.85626L363.63846 317.45L362.57596 317.45ZM369.68533 317.45L369.68533 316.52814Q368.95096 317.59064 367.70096 317.59064Q367.15408 317.59064 366.6697 317.3875Q366.20096 317.16876 365.96658 316.85626Q365.7322 316.52814 365.63846 316.0594Q365.57596 315.7625 365.57596 315.075L365.57596 311.23126L366.63846 311.23126L366.63846 314.6844Q366.63846 315.4969 366.70096 315.79376Q366.7947 316.2 367.1072 316.45Q367.43533 316.6844 367.9197 316.6844Q368.38846 316.6844 368.7947 316.45Q369.21658 316.2 369.38846 315.77814Q369.57596 315.35626 369.57596 314.5594L369.57596 311.23126L370.62283 311.23126L370.62283 317.45L369.68533 317.45ZM376.8572 315.45L377.95096 315.575Q377.70096 316.52814 376.99783 317.0594Q376.2947 317.59064 375.21658 317.59064Q373.8572 317.59064 373.0447 316.7469Q372.24783 315.90314 372.24783 314.3875Q372.24783 312.825 373.06033 311.96564Q373.87283 311.09064 375.15408 311.09064Q376.40408 311.09064 377.18533 311.9344Q377.9822 312.77814 377.9822 314.325Q377.9822 314.41876 377.9822 314.60626L373.34158 314.60626Q373.40408 315.6375 373.9197 316.1844Q374.43533 316.71564 375.21658 316.71564Q375.7947 316.71564 376.20096 316.41876Q376.62283 316.10626 376.8572 315.45ZM373.40408 313.7469L376.87283 313.7469Q376.81033 312.95 376.4822 312.5594Q375.96658 311.95 375.1697 311.95Q374.43533 311.95 373.93533 312.4344Q373.45096 312.91876 373.40408 313.7469ZM379.6072 317.45L379.6072 311.23126L380.5447 311.23126L380.5447 312.10626Q381.2322 311.09064 382.52908 311.09064Q383.09158 311.09064 383.56033 311.29376Q384.0447 311.4969 384.27908 311.825Q384.51346 312.15314 384.6072 312.59064Q384.65408 312.8875 384.65408 313.6219L384.65408 317.45L383.6072 317.45L383.6072 313.66876Q383.6072 313.0125 383.4822 312.7Q383.3572 312.3875 383.0447 312.2Q382.7322 311.9969 382.31033 311.9969Q381.63846 311.9969 381.13846 312.4344Q380.65408 312.85626 380.65408 314.04376L380.65408 317.45L379.6072 317.45ZM386.0447 317.45L386.0447 316.59064L390.01346 312.04376Q389.32596 312.075 388.81033 312.075L386.27908 312.075L386.27908 311.23126L391.37283 311.23126L391.37283 311.91876L387.99783 315.8719L387.34158 316.59064Q388.06033 316.54376 388.6697 316.54376L391.56033 316.54376L391.56033 317.45L386.0447 317.45ZM395.6697 316.6844Q395.07596 317.1844 394.52908 317.3875Q393.99783 317.59064 393.37283 317.59064Q392.34158 317.59064 391.7947 317.09064Q391.24783 316.59064 391.24783 315.8094Q391.24783 315.35626 391.45096 314.98126Q391.65408 314.59064 391.99783 314.3719Q392.34158 314.1375 392.76346 314.02814Q393.06033 313.9344 393.70096 313.85626Q394.96658 313.71564 395.57596 313.4969Q395.57596 313.27814 395.57596 313.23126Q395.57596 312.575 395.27908 312.3094Q394.87283 311.96564 394.07596 311.96564Q393.34158 311.96564 392.9822 312.23126Q392.62283 312.48126 392.45096 313.1375L391.4197 312.9969Q391.56033 312.34064 391.88846 311.9344Q392.21658 311.52814 392.82596 311.3094Q393.43533 311.09064 394.2322 311.09064Q395.02908 311.09064 395.52908 311.27814Q396.02908 311.46564 396.26346 311.7469Q396.49783 312.02814 396.59158 312.46564Q396.63846 312.73126 396.63846 313.4344L396.63846 314.84064Q396.63846 316.3094 396.70096 316.7Q396.77908 317.09064 396.9822 317.45L395.87283 317.45Q395.71658 317.1219 395.6697 316.6844ZM395.57596 314.325Q394.99783 314.5594 393.8572 314.73126Q393.20096 314.825 392.93533 314.95Q392.6697 315.0594 392.51346 315.27814Q392.37283 315.4969 392.37283 315.77814Q392.37283 316.2 392.68533 316.48126Q393.01346 316.7625 393.62283 316.7625Q394.2322 316.7625 394.70096 316.4969Q395.18533 316.23126 395.40408 315.7625Q395.57596 315.40314 395.57596 314.71564L395.57596 314.325ZM400.7947 317.45L404.09158 308.85626L405.31033 308.85626L408.82596 317.45L407.5447 317.45L406.52908 314.84064L402.95096 314.84064L401.99783 317.45L400.7947 317.45ZM403.27908 313.91876L406.18533 313.91876L405.2947 311.54376Q404.87283 310.46564 404.68533 309.7625Q404.51346 310.59064 404.21658 311.40314L403.27908 313.91876ZM413.32596 317.45L410.96658 311.23126L412.07596 311.23126L413.4197 314.95Q413.62283 315.5594 413.81033 316.2Q413.95096 315.71564 414.20096 315.02814L415.59158 311.23126L416.6697 311.23126L414.31033 317.45L413.32596 317.45ZM416.6072 310.075L416.6072 308.85626L417.6697 308.85626L417.6697 310.075L416.6072 310.075ZM416.6072 317.45L416.6072 311.23126L417.6697 311.23126L417.6697 317.45L416.6072 317.45ZM419.59158 317.45L419.59158 311.23126L420.5447 311.23126L420.5447 312.16876Q420.90408 311.5125 421.20096 311.3094Q421.51346 311.09064 421.88846 311.09064Q422.4197 311.09064 422.96658 311.41876L422.6072 312.40314Q422.21658 312.16876 421.84158 312.16876Q421.4822 312.16876 421.20096 312.3875Q420.93533 312.59064 420.82596 312.96564Q420.63846 313.52814 420.63846 314.1844L420.63846 317.45L419.59158 317.45ZM427.68533 317.45L427.68533 316.52814Q426.95096 317.59064 425.70096 317.59064Q425.15408 317.59064 424.6697 317.3875Q424.20096 317.16876 423.96658 316.85626Q423.7322 316.52814 423.63846 316.0594Q423.57596 315.7625 423.57596 315.075L423.57596 311.23126L424.63846 311.23126L424.63846 314.6844Q424.63846 315.4969 424.70096 315.79376Q424.7947 316.2 425.1072 316.45Q425.43533 316.6844 425.9197 316.6844Q426.38846 316.6844 426.7947 316.45Q427.21658 316.2 427.38846 315.77814Q427.57596 315.35626 427.57596 314.5594L427.57596 311.23126L428.62283 311.23126L428.62283 317.45L427.68533 317.45ZM430.18533 315.59064L431.21658 315.4344Q431.31033 316.0594 431.70096 316.3875Q432.1072 316.71564 432.84158 316.71564Q433.56033 316.71564 433.90408 316.4344Q434.26346 316.1375 434.26346 315.73126Q434.26346 315.3719 433.95096 315.16876Q433.7322 315.02814 432.87283 314.8094Q431.71658 314.5125 431.26346 314.3094Q430.82596 314.09064 430.59158 313.71564Q430.3572 313.34064 430.3572 312.8719Q430.3572 312.46564 430.5447 312.10626Q430.7322 311.7469 431.06033 311.5125Q431.31033 311.34064 431.7322 311.21564Q432.15408 311.09064 432.65408 311.09064Q433.37283 311.09064 433.9197 311.3094Q434.4822 311.5125 434.74783 311.8719Q435.01346 312.23126 435.1072 312.825L434.07596 312.96564Q434.01346 312.4969 433.6697 312.23126Q433.34158 311.95 432.71658 311.95Q431.99783 311.95 431.68533 312.2Q431.37283 312.4344 431.37283 312.7625Q431.37283 312.96564 431.49783 313.1219Q431.63846 313.29376 431.90408 313.40314Q432.06033 313.46564 432.84158 313.66876Q433.96658 313.98126 434.40408 314.16876Q434.84158 314.35626 435.09158 314.71564Q435.34158 315.075 435.34158 315.6219Q435.34158 316.15314 435.02908 316.6219Q434.7322 317.075 434.15408 317.34064Q433.57596 317.59064 432.84158 317.59064Q431.62283 317.59064 430.9822 317.09064Q430.3572 316.575 430.18533 315.59064Z" fill-rule="nonzero"/><path fill="#000000" d="M471.4779 314.6844L472.5404 314.59064Q472.61853 315.2469 472.89978 315.65314Q473.18103 316.0594 473.75916 316.325Q474.3529 316.575 475.08728 316.575Q475.7279 316.575 476.2279 316.3875Q476.7279 316.1844 476.96228 315.85626Q477.21228 315.5125 477.21228 315.1219Q477.21228 314.71564 476.9779 314.41876Q476.74353 314.10626 476.21228 313.90314Q475.8529 313.7625 474.6654 313.48126Q473.49353 313.2 473.02478 312.95Q472.39978 312.6219 472.1029 312.15314Q471.80603 311.66876 471.80603 311.075Q471.80603 310.4344 472.1654 309.8719Q472.5404 309.29376 473.24353 309.0125Q473.96228 308.71564 474.82166 308.71564Q475.77478 308.71564 476.50916 309.02814Q477.24353 309.325 477.63416 309.9344Q478.02478 310.52814 478.05603 311.27814L476.96228 311.35626Q476.86853 310.54376 476.3529 310.1375Q475.8529 309.71564 474.86853 309.71564Q473.83728 309.71564 473.36853 310.09064Q472.89978 310.46564 472.89978 310.9969Q472.89978 311.46564 473.2279 311.7625Q473.55603 312.0594 474.93103 312.3719Q476.32166 312.6844 476.83728 312.91876Q477.58728 313.27814 477.94666 313.8094Q478.30603 314.325 478.30603 315.02814Q478.30603 315.71564 477.9154 316.325Q477.52478 316.91876 476.7904 317.2625Q476.05603 317.59064 475.13416 317.59064Q473.96228 317.59064 473.1654 317.2625Q472.38416 316.91876 471.93103 316.23126Q471.49353 315.54376 471.4779 314.6844ZM478.9154 317.45L482.21228 308.85626L483.43103 308.85626L486.94666 317.45L485.6654 317.45L484.64978 314.84064L481.07166 314.84064L480.11853 317.45L478.9154 317.45ZM481.39978 313.91876L484.30603 313.91876L483.4154 311.54376Q482.99353 310.46564 482.80603 309.7625Q482.63416 310.59064 482.33728 311.40314L481.39978 313.91876ZM486.86853 317.45L486.86853 308.85626L490.68103 308.85626Q491.83728 308.85626 492.43103 309.09064Q493.02478 309.325 493.38416 309.91876Q493.74353 310.4969 493.74353 311.2Q493.74353 312.1219 493.14978 312.7469Q492.55603 313.3719 491.32166 313.54376Q491.77478 313.7625 492.00916 313.96564Q492.50916 314.41876 492.94666 315.10626L494.44666 317.45L493.00916 317.45L491.88416 315.66876Q491.38416 314.8875 491.05603 314.48126Q490.74353 314.075 490.4779 313.91876Q490.2279 313.7469 489.96228 313.66876Q489.77478 313.6375 489.33728 313.6375L488.00916 313.6375L488.00916 317.45L486.86853 317.45ZM488.00916 312.65314L490.46228 312.65314Q491.2279 312.65314 491.6654 312.4969Q492.11853 312.325 492.33728 311.98126Q492.57166 311.6219 492.57166 311.2Q492.57166 310.59064 492.11853 310.2Q491.68103 309.8094 490.7279 309.8094L488.00916 309.8094L488.00916 312.65314ZM495.4779 314.6844L496.5404 314.59064Q496.61853 315.2469 496.89978 315.65314Q497.18103 316.0594 497.75916 316.325Q498.3529 316.575 499.08728 316.575Q499.7279 316.575 500.2279 316.3875Q500.7279 316.1844 500.96228 315.85626Q501.21228 315.5125 501.21228 315.1219Q501.21228 314.71564 500.9779 314.41876Q500.74353 314.10626 500.21228 313.90314Q499.8529 313.7625 498.6654 313.48126Q497.49353 313.2 497.02478 312.95Q496.39978 312.6219 496.1029 312.15314Q495.80603 311.66876 495.80603 311.075Q495.80603 310.4344 496.1654 309.8719Q496.5404 309.29376 497.24353 309.0125Q497.96228 308.71564 498.82166 308.71564Q499.77478 308.71564 500.50916 309.02814Q501.24353 309.325 501.63416 309.9344Q502.02478 310.52814 502.05603 311.27814L500.96228 311.35626Q500.86853 310.54376 500.3529 310.1375Q499.8529 309.71564 498.86853 309.71564Q497.83728 309.71564 497.36853 310.09064Q496.89978 310.46564 496.89978 310.9969Q496.89978 311.46564 497.2279 311.7625Q497.55603 312.0594 498.93103 312.3719Q500.32166 312.6844 500.83728 312.91876Q501.58728 313.27814 501.94666 313.8094Q502.30603 314.325 502.30603 315.02814Q502.30603 315.71564 501.9154 316.325Q501.52478 316.91876 500.7904 317.2625Q500.05603 317.59064 499.13416 317.59064Q497.96228 317.59064 497.1654 317.2625Q496.38416 316.91876 495.93103 316.23126Q495.49353 315.54376 495.4779 314.6844ZM512.9935 314.4344L514.1185 314.73126Q513.75916 316.1219 512.8373 316.85626Q511.9154 317.59064 510.57166 317.59064Q509.18103 317.59064 508.30603 317.02814Q507.43103 316.46564 506.9779 315.40314Q506.52478 314.325 506.52478 313.09064Q506.52478 311.7469 507.0404 310.7469Q507.55603 309.7469 508.49353 309.23126Q509.44666 308.71564 510.58728 308.71564Q511.86853 308.71564 512.7435 309.3719Q513.63416 310.02814 513.9779 311.21564L512.8529 311.48126Q512.556 310.54376 511.9779 310.1219Q511.4154 309.6844 510.55603 309.6844Q509.57166 309.6844 508.89978 310.16876Q508.24353 310.6375 507.96228 311.4344Q507.69666 312.23126 507.69666 313.09064Q507.69666 314.1844 508.00916 314.9969Q508.33728 315.8094 509.00916 316.21564Q509.68103 316.6219 510.4779 316.6219Q511.43103 316.6219 512.0873 316.075Q512.75916 315.52814 512.9935 314.4344ZM515.3373 314.34064Q515.3373 312.60626 516.2904 311.77814Q517.0873 311.09064 518.2435 311.09064Q519.5248 311.09064 520.3373 311.9344Q521.1654 312.7625 521.1654 314.2469Q521.1654 315.45 520.806 316.1375Q520.44666 316.825 519.7435 317.21564Q519.056 317.59064 518.2435 317.59064Q516.94666 317.59064 516.13416 316.7625Q515.3373 315.91876 515.3373 314.34064ZM516.4154 314.34064Q516.4154 315.52814 516.931 316.1219Q517.4623 316.71564 518.2435 316.71564Q519.0404 316.71564 519.556 316.1219Q520.07166 315.52814 520.07166 314.3094Q520.07166 313.15314 519.5404 312.5594Q519.0248 311.96564 518.2435 311.96564Q517.4623 311.96564 516.931 312.5594Q516.4154 313.1375 516.4154 314.34064ZM525.306 317.45L521.9779 308.85626L523.2123 308.85626L525.44666 315.10626Q525.7123 315.85626 525.8998 316.5125Q526.1029 315.8094 526.3685 315.10626L528.681 308.85626L529.8373 308.85626L526.4779 317.45L525.306 317.45ZM529.306 314.8719L529.306 313.8094L532.556 313.8094L532.556 314.8719L529.306 314.8719ZM538.9779 316.4344L538.9779 317.45L533.2904 317.45Q533.2904 317.075 533.4154 316.71564Q533.63416 316.1375 534.1029 315.575Q534.5873 315.0125 535.4935 314.27814Q536.8998 313.1219 537.38416 312.45Q537.88416 311.77814 537.88416 311.1844Q537.88416 310.5594 537.431 310.1375Q536.9779 309.7 536.25916 309.7Q535.4935 309.7 535.0404 310.15314Q534.5873 310.60626 534.57166 311.41876L533.4935 311.3094Q533.6029 310.09064 534.32166 309.46564Q535.056 308.825 536.2904 308.825Q537.5248 308.825 538.2435 309.5125Q538.9623 310.2 538.9623 311.21564Q538.9623 311.73126 538.7435 312.23126Q538.5404 312.71564 538.0404 313.27814Q537.556 313.825 536.431 314.77814Q535.4779 315.575 535.19666 315.8719Q534.931 316.15314 534.75916 316.4344L538.9779 316.4344Z" fill-rule="nonzero"/><path fill="#757575" d="M26.8 31.940624L26.8 30.253124L32.8625 30.2375L32.8625 35.55Q31.45625 36.675 29.971874 37.2375Q28.4875 37.8 26.925 37.8Q24.815624 37.8 23.096874 36.89375Q21.378124 35.9875 20.4875 34.284374Q19.6125 32.565624 19.6125 30.45625Q19.6125 28.3625 20.4875 26.565624Q21.3625 24.753124 23.003124 23.878124Q24.64375 22.9875 26.784374 22.9875Q28.33125 22.9875 29.58125 23.4875Q30.846874 23.9875 31.55 24.89375Q32.26875 25.784374 32.64375 27.2375L30.940624 27.70625Q30.6125 26.6125 30.128124 25.9875Q29.659374 25.3625 28.76875 24.9875Q27.878124 24.6125 26.8 24.6125Q25.4875 24.6125 24.534374 25.003124Q23.596874 25.39375 23.01875 26.05Q22.440624 26.690624 22.1125 27.45625Q21.565624 28.784374 21.565624 30.346874Q21.565624 32.253124 22.221874 33.55Q22.89375 34.83125 24.14375 35.45625Q25.409374 36.08125 26.815624 36.08125Q28.05 36.08125 29.221874 35.6125Q30.39375 35.14375 31.003124 34.596874L31.003124 31.940624L26.8 31.940624ZM42.971874 34.20625L44.784374 34.440624Q44.3625 36.01875 43.190624 36.909374Q42.034374 37.784374 40.221874 37.784374Q37.95625 37.784374 36.6125 36.39375Q35.284374 34.9875 35.284374 32.45625Q35.284374 29.83125 36.628124 28.39375Q37.971874 26.940624 40.128124 26.940624Q42.20625 26.940624 43.51875 28.3625Q44.846874 29.76875 44.846874 32.346874Q44.846874 32.503124 44.83125 32.815624L37.096874 32.815624Q37.190624 34.51875 38.065624 35.425Q38.940624 36.33125 40.2375 36.33125Q41.20625 36.33125 41.878124 35.83125Q42.565624 35.315624 42.971874 34.20625ZM37.190624 31.3625L42.9875 31.3625Q42.878124 30.065624 42.33125 29.409374Q41.4875 28.39375 40.14375 28.39375Q38.940624 28.39375 38.1125 29.20625Q37.284374 30.003124 37.190624 31.3625ZM46.8625 37.55L46.8625 27.175L48.45625 27.175L48.45625 28.659374Q49.596874 26.940624 51.753124 26.940624Q52.690624 26.940624 53.471874 27.284374Q54.26875 27.6125 54.659374 28.159374Q55.05 28.70625 55.20625 29.45625Q55.3 29.95625 55.3 31.175L55.3 37.55L53.534374 37.55L53.534374 31.2375Q53.534374 30.159374 53.33125 29.628124Q53.128124 29.096874 52.596874 28.784374Q52.08125 28.471874 51.378124 28.471874Q50.253124 28.471874 49.440624 29.190624Q48.628124 29.89375 48.628124 31.878124L48.628124 37.55L46.8625 37.55ZM56.221874 32.3625Q56.221874 29.4875 57.815624 28.096874Q59.159374 26.940624 61.08125 26.940624Q63.221874 26.940624 64.56563 28.346874Q65.925 29.753124 65.925 32.221874Q65.925 34.221874 65.33125 35.378124Q64.7375 36.51875 63.58125 37.159374Q62.440624 37.784374 61.08125 37.784374Q58.89375 37.784374 57.55 36.39375Q56.221874 34.9875 56.221874 32.3625ZM58.01875 32.3625Q58.01875 34.3625 58.878124 35.346874Q59.753124 36.33125 61.08125 36.33125Q62.39375 36.33125 63.253124 35.346874Q64.12813 34.346874 64.12813 32.3Q64.12813 30.378124 63.253124 29.39375Q62.378124 28.39375 61.08125 28.39375Q59.753124 28.39375 58.878124 29.39375Q58.01875 30.378124 58.01875 32.3625ZM67.8625 37.55L67.8625 27.175L69.44063 27.175L69.44063 28.628124Q69.925 27.878124 70.7375 27.409374Q71.55 26.940624 72.58125 26.940624Q73.7375 26.940624 74.47188 27.425Q75.20625 27.89375 75.51875 28.753124Q76.75313 26.940624 78.72188 26.940624Q80.26875 26.940624 81.09688 27.8Q81.925 28.659374 81.925 30.425L81.925 37.55L80.175 37.55L80.175 31.01875Q80.175 29.95625 80.00313 29.503124Q79.83125 29.034374 79.37813 28.753124Q78.94063 28.471874 78.33125 28.471874Q77.2375 28.471874 76.50313 29.20625Q75.78438 29.925 75.78438 31.51875L75.78438 37.55L74.03438 37.55L74.03438 30.815624Q74.03438 29.64375 73.59688 29.065624Q73.175 28.471874 72.19063 28.471874Q71.45625 28.471874 70.81563 28.8625Q70.19063 29.253124 69.90938 30.003124Q69.62813 30.753124 69.62813 32.175L69.62813 37.55L67.8625 37.55ZM90.97188 34.20625L92.78438 34.440624Q92.3625 36.01875 91.19063 36.909374Q90.03438 37.784374 88.22188 37.784374Q85.95625 37.784374 84.6125 36.39375Q83.28438 34.9875 83.28438 32.45625Q83.28438 29.83125 84.62813 28.39375Q85.97188 26.940624 88.12813 26.940624Q90.20625 26.940624 91.51875 28.3625Q92.84688 29.76875 92.84688 32.346874Q92.84688 32.503124 92.83125 32.815624L85.09688 32.815624Q85.19063 34.51875 86.06563 35.425Q86.94063 36.33125 88.2375 36.33125Q89.20625 36.33125 89.87813 35.83125Q90.56563 35.315624 90.97188 34.20625ZM85.19063 31.3625L90.9875 31.3625Q90.87813 30.065624 90.33125 29.409374Q89.4875 28.39375 88.14375 28.39375Q86.94063 28.39375 86.1125 29.20625Q85.28438 30.003124 85.19063 31.3625ZM100.45625 32.95625L102.2375 32.8Q102.3625 33.8625 102.81563 34.55Q103.28438 35.2375 104.25313 35.675Q105.2375 36.096874 106.47188 36.096874Q107.55 36.096874 108.37813 35.784374Q109.20625 35.45625 109.6125 34.89375Q110.01875 34.33125 110.01875 33.659374Q110.01875 32.9875 109.62813 32.4875Q109.2375 31.9875 108.34688 31.64375Q107.76875 31.409374 105.78438 30.940624Q103.81563 30.471874 103.03438 30.05Q102.00313 29.51875 101.50313 28.721874Q101.00313 27.925 101.00313 26.940624Q101.00313 25.846874 101.6125 24.909374Q102.22188 23.971874 103.40938 23.4875Q104.59688 22.9875 106.03438 22.9875Q107.62813 22.9875 108.84688 23.503124Q110.06563 24.01875 110.70625 25.01875Q111.3625 26.003124 111.40938 27.26875L109.59688 27.409374Q109.45625 26.05 108.6125 25.3625Q107.76875 24.659374 106.1125 24.659374Q104.39375 24.659374 103.59688 25.3Q102.81563 25.925 102.81563 26.8Q102.81563 27.58125 103.37813 28.08125Q103.925 28.58125 106.2375 29.096874Q108.55 29.6125 109.40938 30.003124Q110.65938 30.58125 111.25313 31.471874Q111.84688 32.346874 111.84688 33.503124Q111.84688 34.64375 111.19063 35.659374Q110.53438 36.675 109.3 37.2375Q108.08125 37.8 106.55 37.8Q104.6125 37.8 103.3 37.2375Q101.9875 36.659374 101.2375 35.51875Q100.4875 34.378124 100.45625 32.95625ZM113.87813 25.253124L113.87813 23.2375L115.64375 23.2375L115.64375 25.253124L113.87813 25.253124ZM113.87813 37.55L113.87813 27.175L115.64375 27.175L115.64375 37.55L113.87813 37.55ZM116.94063 37.55L116.94063 36.128124L123.55 28.55Q122.425 28.596874 121.56563 28.596874L117.33125 28.596874L117.33125 27.175L125.81563 27.175L125.81563 28.346874L120.19063 34.925L119.1125 36.128124Q120.28438 36.034374 121.33125 36.034374L126.12813 36.034374L126.12813 37.55L116.94063 37.55ZM133.97188 34.20625L135.78438 34.440624Q135.3625 36.01875 134.19063 36.909374Q133.03438 37.784374 131.22188 37.784374Q128.95625 37.784374 127.6125 36.39375Q126.28438 34.9875 126.28438 32.45625Q126.28438 29.83125 127.62813 28.39375Q128.97188 26.940624 131.12813 26.940624Q133.20625 26.940624 134.51875 28.3625Q135.84688 29.76875 135.84688 32.346874Q135.84688 32.503124 135.83125 32.815624L128.09688 32.815624Q128.19063 34.51875 129.06563 35.425Q129.94063 36.33125 131.2375 36.33125Q132.20625 36.33125 132.87813 35.83125Q133.56563 35.315624 133.97188 34.20625ZM128.19063 31.3625L133.9875 31.3625Q133.87813 30.065624 133.33125 29.409374Q132.4875 28.39375 131.14375 28.39375Q129.94063 28.39375 129.1125 29.20625Q128.28438 30.003124 128.19063 31.3625ZM154.31563 32.534374L156.20625 33.003124Q155.6125 35.346874 154.06563 36.58125Q152.51875 37.8 150.26875 37.8Q147.95625 37.8 146.50313 36.8625Q145.06563 35.909374 144.3 34.128124Q143.55 32.33125 143.55 30.284374Q143.55 28.05 144.39375 26.39375Q145.25313 24.721874 146.83125 23.8625Q148.40938 22.9875 150.3 22.9875Q152.45625 22.9875 153.90938 24.08125Q155.37813 25.175 155.95625 27.159374L154.09688 27.596874Q153.59688 26.034374 152.64375 25.33125Q151.70625 24.6125 150.26875 24.6125Q148.6125 24.6125 147.50313 25.409374Q146.39375 26.190624 145.94063 27.534374Q145.50313 28.8625 145.50313 30.26875Q145.50313 32.096874 146.03438 33.471874Q146.56563 34.83125 147.69063 35.503124Q148.81563 36.175 150.1125 36.175Q151.70625 36.175 152.81563 35.253124Q153.925 34.33125 154.31563 32.534374ZM157.22188 32.3625Q157.22188 29.4875 158.81563 28.096874Q160.15938 26.940624 162.08125 26.940624Q164.22188 26.940624 165.56563 28.346874Q166.925 29.753124 166.925 32.221874Q166.925 34.221874 166.33125 35.378124Q165.7375 36.51875 164.58125 37.159374Q163.44063 37.784374 162.08125 37.784374Q159.89375 37.784374 158.55 36.39375Q157.22188 34.9875 157.22188 32.3625ZM159.01875 32.3625Q159.01875 34.3625 159.87813 35.346874Q160.75313 36.33125 162.08125 36.33125Q163.39375 36.33125 164.25313 35.346874Q165.12813 34.346874 165.12813 32.3Q165.12813 30.378124 164.25313 29.39375Q163.37813 28.39375 162.08125 28.39375Q160.75313 28.39375 159.87813 29.39375Q159.01875 30.378124 159.01875 32.3625ZM168.8625 37.55L168.8625 27.175L170.44063 27.175L170.44063 28.628124Q170.925 27.878124 171.7375 27.409374Q172.55 26.940624 173.58125 26.940624Q174.7375 26.940624 175.47188 27.425Q176.20625 27.89375 176.51875 28.753124Q177.75313 26.940624 179.72188 26.940624Q181.26875 26.940624 182.09688 27.8Q182.925 28.659374 182.925 30.425L182.925 37.55L181.175 37.55L181.175 31.01875Q181.175 29.95625 181.00313 29.503124Q180.83125 29.034374 180.37813 28.753124Q179.94063 28.471874 179.33125 28.471874Q178.2375 28.471874 177.50313 29.20625Q176.78438 29.925 176.78438 31.51875L176.78438 37.55L175.03438 37.55L175.03438 30.815624Q175.03438 29.64375 174.59688 29.065624Q174.175 28.471874 173.19063 28.471874Q172.45625 28.471874 171.81563 28.8625Q171.19063 29.253124 170.90938 30.003124Q170.62813 30.753124 170.62813 32.175L170.62813 37.55L168.8625 37.55ZM184.8625 41.51875L184.8625 27.175L186.47188 27.175L186.47188 28.51875Q187.03438 27.7375 187.7375 27.346874Q188.45625 26.940624 189.47188 26.940624Q190.8 26.940624 191.81563 27.628124Q192.83125 28.315624 193.34688 29.565624Q193.87813 30.8 193.87813 32.284374Q193.87813 33.878124 193.3 35.159374Q192.7375 36.425 191.64375 37.1125Q190.55 37.784374 189.34688 37.784374Q188.47188 37.784374 187.76875 37.409374Q187.08125 37.034374 186.62813 36.471874L186.62813 41.51875L184.8625 41.51875ZM186.45625 32.425Q186.45625 34.425 187.26875 35.378124Q188.08125 36.33125 189.2375 36.33125Q190.40938 36.33125 191.2375 35.346874Q192.08125 34.3625 192.08125 32.26875Q192.08125 30.3 191.25313 29.315624Q190.44063 28.315624 189.31563 28.315624Q188.19063 28.315624 187.31563 29.378124Q186.45625 30.425 186.45625 32.425ZM202.64375 36.26875Q201.65938 37.096874 200.75313 37.440624Q199.84688 37.784374 198.81563 37.784374Q197.1125 37.784374 196.19063 36.95625Q195.26875 36.1125 195.26875 34.815624Q195.26875 34.05 195.6125 33.425Q195.97188 32.8 196.53438 32.425Q197.09688 32.034374 197.8 31.83125Q198.31563 31.70625 199.3625 31.565624Q201.4875 31.315624 202.4875 30.971874Q202.50313 30.6125 202.50313 30.503124Q202.50313 29.440624 202.00313 28.9875Q201.33125 28.39375 200.00313 28.39375Q198.75313 28.39375 198.15938 28.83125Q197.58125 29.26875 197.3 30.378124L195.58125 30.14375Q195.81563 29.034374 196.34688 28.3625Q196.87813 27.675 197.89375 27.315624Q198.90938 26.940624 200.25313 26.940624Q201.58125 26.940624 202.40938 27.253124Q203.2375 27.565624 203.62813 28.05Q204.01875 28.51875 204.175 29.2375Q204.26875 29.690624 204.26875 30.8625L204.26875 33.20625Q204.26875 35.659374 204.37813 36.315624Q204.4875 36.95625 204.83125 37.55L202.9875 37.55Q202.72188 37.003124 202.64375 36.26875ZM202.4875 32.346874Q201.53438 32.7375 199.6125 33.003124Q198.53438 33.159374 198.08125 33.3625Q197.64375 33.55 197.39375 33.925Q197.14375 34.3 197.14375 34.76875Q197.14375 35.471874 197.675 35.940624Q198.20625 36.409374 199.2375 36.409374Q200.25313 36.409374 201.03438 35.971874Q201.83125 35.51875 202.20625 34.753124Q202.4875 34.14375 202.4875 32.9875L202.4875 32.346874ZM206.84688 37.55L206.84688 27.175L208.425 27.175L208.425 28.753124Q209.03438 27.64375 209.55 27.3Q210.06563 26.940624 210.675 26.940624Q211.56563 26.940624 212.4875 27.503124L211.87813 29.14375Q211.2375 28.753124 210.59688 28.753124Q210.01875 28.753124 209.55 29.1125Q209.09688 29.45625 208.89375 30.065624Q208.6125 31.003124 208.6125 32.1125L208.6125 37.55L206.84688 37.55ZM213.87813 25.253124L213.87813 23.2375L215.64375 23.2375L215.64375 25.253124L213.87813 25.253124ZM213.87813 37.55L213.87813 27.175L215.64375 27.175L215.64375 37.55L213.87813 37.55ZM217.15938 34.45625L218.90938 34.175Q219.05 35.221874 219.72188 35.784374Q220.39375 36.33125 221.59688 36.33125Q222.8 36.33125 223.37813 35.846874Q223.97188 35.346874 223.97188 34.690624Q223.97188 34.096874 223.45625 33.753124Q223.09688 33.51875 221.65938 33.159374Q219.72188 32.659374 218.97188 32.315624Q218.2375 31.95625 217.84688 31.33125Q217.45625 30.690624 217.45625 29.925Q217.45625 29.2375 217.76875 28.64375Q218.09688 28.05 218.64375 27.659374Q219.05 27.3625 219.75313 27.159374Q220.47188 26.940624 221.28438 26.940624Q222.50313 26.940624 223.425 27.3Q224.34688 27.64375 224.78438 28.253124Q225.22188 28.846874 225.39375 29.846874L223.675 30.08125Q223.55 29.284374 222.9875 28.846874Q222.425 28.39375 221.40938 28.39375Q220.19063 28.39375 219.675 28.8Q219.15938 29.190624 219.15938 29.721874Q219.15938 30.065624 219.37813 30.346874Q219.58125 30.628124 220.05 30.815624Q220.31563 30.909374 221.59688 31.253124Q223.47188 31.753124 224.20625 32.08125Q224.94063 32.39375 225.3625 33.003124Q225.78438 33.596874 225.78438 34.503124Q225.78438 35.378124 225.26875 36.159374Q224.75313 36.940624 223.78438 37.3625Q222.81563 37.784374 221.59688 37.784374Q219.58125 37.784374 218.51875 36.940624Q217.45625 36.096874 217.15938 34.45625ZM227.22188 32.3625Q227.22188 29.4875 228.81563 28.096874Q230.15938 26.940624 232.08125 26.940624Q234.22188 26.940624 235.56563 28.346874Q236.925 29.753124 236.925 32.221874Q236.925 34.221874 236.33125 35.378124Q235.7375 36.51875 234.58125 37.159374Q233.44063 37.784374 232.08125 37.784374Q229.89375 37.784374 228.55 36.39375Q227.22188 34.9875 227.22188 32.3625ZM229.01875 32.3625Q229.01875 34.3625 229.87813 35.346874Q230.75313 36.33125 232.08125 36.33125Q233.39375 36.33125 234.25313 35.346874Q235.12813 34.346874 235.12813 32.3Q235.12813 30.378124 234.25313 29.39375Q233.37813 28.39375 232.08125 28.39375Q230.75313 28.39375 229.87813 29.39375Q229.01875 30.378124 229.01875 32.3625ZM238.8625 37.55L238.8625 27.175L240.45625 27.175L240.45625 28.659374Q241.59688 26.940624 243.75313 26.940624Q244.69063 26.940624 245.47188 27.284374Q246.26875 27.6125 246.65938 28.159374Q247.05 28.70625 247.20625 29.45625Q247.3 29.95625 247.3 31.175L247.3 37.55L245.53438 37.55L245.53438 31.2375Q245.53438 30.159374 245.33125 29.628124Q245.12813 29.096874 244.59688 28.784374Q244.08125 28.471874 243.37813 28.471874Q242.25313 28.471874 241.44063 29.190624Q240.62813 29.89375 240.62813 31.878124L240.62813 37.55L238.8625 37.55Z" fill-rule="nonzero"/></svg>